PathFileType	4	(X/Y/Z)	C:\Users\Basilio\Documents\Thesis Gigler\squatting_fais\c3dfiles\038\SLS_front_pre4\markers_experimental.trc
DataRate	CameraRate	NumFrames	NumMarkers	Units	OrigDataRate	OrigDataStartFrame	OrigNumFrames
200.000000	200.000000	4	61	mm	200.000000	704	1408
Frame#	Time	FHD			LBHD			RBHD			C7			T10			CLAV			LSHO			LUUPA			LMUPA			LDUPA			LLEP			LMEP			LRAD			LUL			LRFIN			RSHO			RUPA1			RMUPA			RDUPA			RLEP			RMEP			RRAD			RUL			RUFIN			LASI			RASI			USACR			LSACR			RSACR			LTHI1			LTHI2			LTHI3			LTHI4			LLFC			LMFC			LTIB1			LTIB2			LTIB3			LTIB4			LLMAL			LMMAL			LHEE			LMT1			LMT2			LMT5			RTHI			RTHI2			RTHI3			RTHI4			RLFC			RMFC			RTIB1			RTIB2			RTIB3			RTIB4			RLMAL			RMMAL			RHEE			RMT1			RMT2			RMT5			
		X1	Y1	Z1	X2	Y2	Z2	X3	Y3	Z3	X4	Y4	Z4	X5	Y5	Z5	X6	Y6	Z6	X7	Y7	Z7	X8	Y8	Z8	X9	Y9	Z9	X10	Y10	Z10	X11	Y11	Z11	X12	Y12	Z12	X13	Y13	Z13	X14	Y14	Z14	X15	Y15	Z15	X16	Y16	Z16	X17	Y17	Z17	X18	Y18	Z18	X19	Y19	Z19	X20	Y20	Z20	X21	Y21	Z21	X22	Y22	Z22	X23	Y23	Z23	X24	Y24	Z24	X25	Y25	Z25	X26	Y26	Z26	X27	Y27	Z27	X28	Y28	Z28	X29	Y29	Z29	X30	Y30	Z30	X31	Y31	Z31	X32	Y32	Z32	X33	Y33	Z33	X34	Y34	Z34	X35	Y35	Z35	X36	Y36	Z36	X37	Y37	Z37	X38	Y38	Z38	X39	Y39	Z39	X40	Y40	Z40	X41	Y41	Z41	X42	Y42	Z42	X43	Y43	Z43	X44	Y44	Z44	X45	Y45	Z45	X46	Y46	Z46	X47	Y47	Z47	X48	Y48	Z48	X49	Y49	Z49	X50	Y50	Z50	X51	Y51	Z51	X52	Y52	Z52	X53	Y53	Z53	X54	Y54	Z54	X55	Y55	Z55	X56	Y56	Z56	X57	Y57	Z57	X58	Y58	Z58	X59	Y59	Z59	X60	Y60	Z60	X61	Y61	Z61	

705	3.52	-214.2736206054688	1548.141235351563	-1117.14013671875	-371.0249328613282	1504.236572265625	-1181.03125	-366.6875000000001	1491.946533203125	-1036.171142578125	-434.5849914550782	1339.1982421875	-1106.972900390625	-476.4083251953126	1060.666625976563	-1073.723022460938	-292.6612854003907	1301.2294921875	-1111.49462890625	-346.5591430664063	1339.187377929688	-1255.411499023438	-182.0293731689453	1274.330444335938	-1379.65185546875	-154.4976348876953	1307.897216796875	-1352.40771484375	-112.3714828491211	1280.096435546875	-1385.243041992188	-50.38953018188478	1281.854858398438	-1384.614990234375	-42.91852188110352	1207.857299804688	-1360.920043945313	231.9488067626954	1265.192626953125	-1271.0166015625	243.2041473388672	1288.072875976563	-1339.73388671875	302.0222778320313	1298.30126953125	-1246.081909179688	-336.7102966308594	1348.63427734375	-972.9381103515627	-186.645751953125	1320.080688476563	-847.0958251953127	-149.8936462402344	1326.993286132813	-878.1033325195315	-120.0470199584961	1314.65234375	-826.9314575195315	-46.85763549804688	1310.267822265625	-813.7850341796877	-43.45844650268555	1230.66845703125	-825.307556152344	228.0160064697266	1290.315673828125	-899.9526977539065	239.6250305175782	1312.266479492188	-833.7581176757815	309.4007263183594	1321.813720703125	-909.5371704101565	-298.4742126464844	874.6485595703127	-1149.160522460938	-347.0952148437501	903.9101562500002	-905.614929199219	-488.9642639160157	896.3948364257815	-1052.315551757813	-490.3707885742189	862.227233886719	-1078.274536132813	-499.901824951172	866.0917968750002	-1022.526672363281	-176.3733367919922	597.9302368164064	-1204.988403320313	-106.2906570434571	548.4900512695314	-1201.5947265625	-70.80055236816408	575.9724731445314	-1178.513549804688	-104.0663833618164	489.663299560547	-1184.97216796875	-82.3977737426758	440.0010070800782	-1171.129516601563	-72.39047241210939	444.9908142089845	-1053.643310546875	-129.5244598388672	276.4562377929688	-1072.346313476563	-191.2051086425782	254.6403503417969	-1134.255493164063	-160.7353210449219	236.2781677246094	-1101.956298828125	-215.5352478027344	183.4212341308594	-1062.418701171875	-356.8835144042969	110.8264236450196	-1076.797241210938	-315.9983825683594	125.2521743774414	-1002.820495605469	-416.8042907714845	94.63392639160158	-1016.3369140625	-215.5909729003907	45.17002868652344	-1017.176940917969	-209.5679473876954	44.48150253295899	-1068.101440429688	-257.1194458007813	33.59675979614259	-1112.337036132813	-226.1941680908204	685.7167968750001	-836.990417480469	-159.4257354736328	679.3568725585939	-836.976257324219	-139.8966827392578	704.8550415039064	-844.3526611328127	-118.2046127319336	604.0163574218751	-849.8022460937502	-3.931059837341309	528.8271484375001	-857.4959716796877	-4.778685092926026	522.7075195312501	-979.4085693359377	158.045150756836	444.6147460937501	-880.2633056640627	167.2460632324219	335.4101867675782	-839.5520019531252	195.8497772216797	371.4607543945313	-851.2026977539065	241.3183135986329	345.9409790039063	-878.3626708984377	291.8439941406251	216.9741821289063	-842.6424560546877	307.0014648437501	244.178939819336	-923.4880371093752	303.8323364257813	134.767822265625	-905.2813720703127	430.5535278320314	311.6175537109376	-892.438903808594	421.063690185547	314.7712097167969	-846.063415527344	410.812225341797	269.9760437011719	-801.1273193359377	
706	3.525	-213.9753417968751	1547.46923828125	-1117.134155273438	-370.6486816406251	1503.596923828125	-1181.016357421875	-366.2377014160157	1491.289794921875	-1036.2529296875	-434.3597412109376	1338.73291015625	-1106.973388671875	-476.5838012695314	1060.135620117188	-1073.800537109375	-292.4312133789063	1300.631103515625	-1111.611572265625	-346.3564453125001	1338.627685546875	-1255.444580078125	-181.6795806884766	1273.824829101563	-1379.690551757813	-154.2138061523438	1307.588623046875	-1352.427856445313	-112.6779098510742	1279.92333984375	-1385.182006835938	-50.53510665893556	1281.72265625	-1384.388549804688	-42.65907287597657	1207.365356445313	-1360.988647460938	231.6564025878907	1265.983032226563	-1271.501953125	243.5122070312501	1287.760620117188	-1339.92626953125	302.1843566894532	1297.900268554688	-1246.23291015625	-336.4471130371094	1348.0078125	-973.0222778320315	-186.2904663085938	1319.489868164063	-847.0841064453127	-149.6925354003907	1326.427612304688	-878.1643066406252	-119.8898391723633	1313.974365234375	-826.8641357421877	-46.45674514770509	1309.50830078125	-813.904235839844	-43.1063575744629	1230.11328125	-825.396423339844	228.191635131836	1289.683471679688	-899.7766113281252	240.0203399658204	1311.798095703125	-833.9190673828127	309.7363891601563	1320.900756835938	-909.6079711914065	-298.5082397460938	874.1560668945315	-1149.195190429688	-347.3668823242188	903.3527832031252	-905.5493164062502	-489.2689819335939	895.9531250000002	-1052.256713867188	-490.538787841797	861.5811767578127	-1078.314086914063	-499.9969482421876	865.3567504882815	-1022.671142578125	-176.1004180908203	597.6076049804689	-1204.8427734375	-105.9317245483399	548.2805786132814	-1201.309326171875	-70.63604736328126	575.9219360351564	-1178.25244140625	-103.6837387084961	489.3512573242189	-1184.599975585938	-82.02832031250001	439.8109741210939	-1170.897705078125	-72.15847015380861	444.8472290039064	-1053.508911132813	-129.3493347167969	276.2839965820313	-1072.216430664063	-190.9417724609375	254.6095275878907	-1134.1201171875	-160.4804840087891	236.0219421386719	-1101.716674804688	-215.4215393066407	183.4364929199219	-1062.263427734375	-356.7222595214844	110.878890991211	-1076.757202148438	-315.9057922363282	125.267578125	-1002.824645996094	-416.7937622070314	94.65152740478517	-1016.334594726563	-215.6231689453126	45.18967437744141	-1017.174987792969	-209.5589752197266	44.5179786682129	-1068.1123046875	-257.1398315429688	33.60260772705079	-1112.332641601563	-226.2683258056641	685.1467895507814	-837.0872802734377	-159.8101501464844	678.7936401367189	-837.269470214844	-139.9316864013672	704.4436645507814	-844.3159179687502	-118.1482620239258	603.7341918945314	-849.9042968750002	-3.814438104629517	528.7270507812501	-857.5564575195315	-4.534420967102052	522.6890258789064	-979.4603271484377	158.3953552246094	444.6548461914064	-880.394714355469	167.511703491211	335.4373779296876	-839.6380615234377	196.1907806396485	371.5359802246094	-851.3496093750002	241.6988677978516	346.1347656250001	-878.553894042969	292.6041259765626	217.475326538086	-842.530456542969	307.4797363281251	244.4426727294922	-923.6516113281252	300.5630798339844	137.7522430419922	-905.3821411132815	430.6760559082032	312.2764892578126	-892.599548339844	421.7384033203126	314.9698181152344	-845.9345703125002	411.2180786132814	270.2987976074219	-801.4000244140627	
707	3.53	-213.6991577148438	1546.43896484375	-1116.958374023438	-370.3784484863282	1502.55322265625	-1181.116088867188	-365.9825439453126	1490.7490234375	-1036.3173828125	-434.0424804687501	1338.167114257813	-1107.0048828125	-476.5066528320314	1059.71337890625	-1073.844848632813	-291.9519042968751	1299.902709960938	-1111.709106445313	-346.0610961914063	1338.155395507813	-1255.457641601563	-181.45166015625	1273.3544921875	-1379.73779296875	-154.0455322265625	1307.171875	-1352.32568359375	-112.5546188354492	1279.809204101563	-1385.706787109375	-50.22522735595705	1281.339233398438	-1384.475952148438	-42.36216735839844	1206.968017578125	-1361.092163085938	232.3525390625001	1265.685791015625	-1271.512573242188	243.8128356933594	1287.452270507813	-1340.075439453125	302.5284423828126	1297.389892578125	-1246.37255859375	-336.0554504394532	1347.486083984375	-973.0822753906252	-186.0605926513672	1318.925415039063	-847.1834106445315	-149.3736419677735	1325.842041015625	-878.2964477539065	-119.4101867675782	1313.34521484375	-827.080749511719	-46.13470077514649	1308.908325195313	-814.005310058594	-42.67248153686524	1229.497924804688	-825.6392211914065	228.6338958740235	1289.409912109375	-900.030212402344	240.3550872802735	1311.359375	-833.8665161132815	309.9866638183594	1320.683227539063	-909.4245605468752	-298.7409973144532	873.635925292969	-1149.263427734375	-347.5354003906251	902.7965087890627	-905.5881347656252	-488.8234863281251	894.4736938476565	-1052.412475585938	-490.8033752441407	861.0000000000002	-1078.448852539063	-500.302215576172	864.9751586914065	-1022.721435546875	-175.6550445556641	597.6016845703126	-1204.57373046875	-105.6203842163086	548.0250854492189	-1201.142944335938	-70.37650299072267	575.7343750000001	-1177.953857421875	-103.2663955688477	489.1397094726564	-1184.370483398438	-81.54801177978517	439.5845336914064	-1170.711181640625	-71.71671295166017	444.7217712402345	-1053.128295898438	-129.0899963378907	276.1452636718751	-1072.1142578125	-190.8260650634766	254.5708465576172	-1134.045166015625	-160.3897857666016	235.7214355468751	-1101.468383789063	-215.3060760498047	183.4817199707032	-1062.195434570313	-356.6552734375001	110.8644180297852	-1076.787353515625	-315.8860168457032	125.26806640625	-1002.7958984375	-416.7800598144532	94.68750000000001	-1016.401550292969	-215.6145477294922	45.18247985839844	-1017.169555664063	-209.5469207763672	44.49127197265626	-1068.073974609375	-257.0931396484376	33.56534957885743	-1112.31005859375	-226.0883483886719	684.9990234375001	-836.7222290039065	-159.9207763671875	678.4854736328126	-837.1971435546877	-139.9182281494141	704.1059570312501	-844.3347778320315	-118.0060043334961	603.5098266601564	-849.9046630859377	-3.645900011062623	528.4884033203126	-857.6260375976565	-4.251111984252931	522.6024780273439	-979.640808105469	158.7665710449219	444.582977294922	-880.5864868164065	167.8893432617188	335.5445251464844	-839.9002685546877	196.5559082031251	371.5905456542969	-851.4180908203127	241.9369659423829	346.0369567871094	-878.970642089844	292.9239807128907	217.5701141357422	-842.8850708007815	308.0844116210938	244.7184600830079	-923.8380126953127	299.9360961914063	138.9561767578125	-905.3565673828127	431.144744873047	312.7665710449219	-892.7283325195315	422.3958129882814	315.3642272949219	-845.9136352539065	411.8044738769532	270.6900024414063	-801.491882324219	
708	3.535	-213.3754882812501	1545.89697265625	-1117.05224609375	-369.9809875488282	1501.921875	-1181.153442382813	-365.7399902343751	1490.096801757813	-1036.285888671875	-433.8855590820314	1337.81201171875	-1107.088500976563	-476.5498962402345	1059.115112304688	-1073.876708984375	-291.9872131347657	1299.155395507813	-1111.56982421875	-345.7391662597657	1337.55322265625	-1255.533325195313	-181.1185913085938	1272.90673828125	-1379.81005859375	-153.74658203125	1306.698120117188	-1352.440307617188	-112.1285018920899	1279.210693359375	-1385.429565429688	-49.6869468688965	1280.6552734375	-1384.75537109375	-42.01842117309571	1206.565185546875	-1361.416259765625	232.8500671386719	1265.280029296875	-1271.704833984375	244.1338195800782	1287.092163085938	-1340.230590820313	302.9492797851563	1296.875366210938	-1246.5986328125	-335.8356628417969	1346.871704101563	-973.025817871094	-185.891342163086	1318.3359375	-847.1654052734377	-149.1601104736328	1325.380615234375	-878.2423095703127	-119.1593246459961	1312.794799804688	-827.0538330078127	-45.75956344604493	1308.325073242188	-814.0302734375002	-42.44040679931641	1229.023803710938	-825.806823730469	228.7437744140626	1288.633544921875	-899.8345336914065	240.6373443603516	1310.558227539063	-833.7807617187502	310.2438049316407	1320.027465820313	-909.5067138671877	-298.9581909179688	873.1118164062502	-1149.190673828125	-347.7227478027344	902.2637939453127	-905.5629882812502	-489.6177673339845	894.6995239257815	-1052.303955078125	-490.9971313476564	860.2464599609377	-1078.55419921875	-500.5535278320314	864.298034667969	-1022.818115234375	-175.4278259277344	597.2745971679689	-1204.56689453125	-105.2256164550782	547.7515869140626	-1200.954956054688	-70.04363250732423	575.5275878906251	-1177.70703125	-102.8997879028321	488.9242248535157	-1184.221435546875	-81.22821044921876	439.4146118164064	-1170.495361328125	-71.28393554687501	444.4711303710939	-1052.763427734375	-128.8941192626953	276.0225524902344	-1072.003295898438	-190.6193389892578	254.5343933105469	-1133.914184570313	-160.270492553711	235.6275329589844	-1101.34521484375	-215.2708892822266	183.4375152587891	-1062.1982421875	-356.5454101562501	110.9775466918946	-1076.763305664063	-315.8165283203126	125.2602844238282	-1002.862976074219	-416.8037109375001	94.72168731689455	-1016.344360351563	-215.6053924560547	45.11887359619141	-1017.175537109375	-209.5271759033204	44.4610939025879	-1068.026123046875	-256.8067321777344	33.33845138549805	-1112.313232421875	-226.2156677246094	684.6802978515626	-836.632751464844	-159.9549407958985	678.0802001953126	-837.1655883789065	-139.8634796142578	703.7073974609376	-844.408874511719	-117.9038467407227	603.0524902343751	-849.9238281250002	-3.515456199645997	528.3046264648439	-857.6983032226565	-3.98621153831482	522.4514770507814	-979.6528930664065	159.0442962646485	444.5816345214845	-880.7509765625002	168.4657135009766	335.4443054199219	-840.0965576171877	196.8731536865235	371.6193237304688	-851.433044433594	242.4998474121094	346.1912536621094	-879.0997314453127	293.5692138671876	217.7262420654297	-843.1192626953127	308.9400939941407	244.6489715576172	-923.990905761719	301.5867614746094	138.4549407958985	-905.870544433594	431.6298217773439	313.1869506835938	-892.8111572265627	422.7522888183595	315.7532653808594	-846.000671386719	412.3271484375001	270.8730773925782	-801.5684814453127	
